<svg width="22" height="18" viewBox="0 0 22 18" fill="none" xmlns="http://www.w3.org/2000/svg">
<path fill-rule="evenodd" clip-rule="evenodd" d="M3 2C2.73478 2 2.48043 2.10536 2.29289 2.29289C2.10536 2.48043 2 2.73478 2 3V15C2 15.2652 2.10536 15.5196 2.29289 15.7071C2.48043 15.8946 2.73478 16 3 16H19C19.2652 16 19.5196 15.8946 19.7071 15.7071C19.8946 15.5196 20 15.2652 20 15V3C20 2.73478 19.8946 2.48043 19.7071 2.29289C19.5196 2.10536 19.2652 2 19 2H3ZM0.87868 0.87868C1.44129 0.31607 2.20435 0 3 0H19C19.7957 0 20.5587 0.31607 21.1213 0.87868C21.6839 1.44129 22 2.20435 22 3V15C22 15.7956 21.6839 16.5587 21.1213 17.1213C20.5587 17.6839 19.7957 18 19 18H3C2.20435 18 1.44129 17.6839 0.87868 17.1213C0.31607 16.5587 0 15.7956 0 15V3C0 2.20435 0.31607 1.44129 0.87868 0.87868Z" fill="#2A77FF"/>
<path fill-rule="evenodd" clip-rule="evenodd" d="M7.67859 8.38539L1.33561 2.74741L2.66431 1.25257L9.00731 6.89057C9.55647 7.37872 10.2657 7.64839 11.0005 7.64839C11.7352 7.64839 12.4444 7.37875 12.9936 6.89062L19.3356 1.25262L20.6644 2.74736L14.3224 8.38536C13.4071 9.19895 12.2251 9.64839 11.0005 9.64839C9.77587 9.64839 8.59384 9.19896 7.67859 8.38539Z" fill="#2A77FF"/>
</svg>
