<svg width="30" height="43" viewBox="0 0 30 43" fill="none" xmlns="http://www.w3.org/2000/svg">
<path d="M14.9464 43H15C23.2693 43 30 36.249 30 27.95V15.05C30 6.79185 23.2993 0.0559 15.0407 0H14.9121C6.68357 0.0473 0 6.78755 0 15.05V27.95C0 36.249 6.705 43 14.9464 43ZM4.28571 15.05C4.28965 12.2057 5.41533 9.47858 7.41685 7.46435C9.41837 5.45012 12.133 4.31249 14.9679 4.3C20.8929 4.3129 25.7143 9.13535 25.7143 15.05V27.95C25.7143 33.8776 20.9079 38.7 15 38.7H14.9464C8.97 38.7 4.28571 33.9786 4.28571 27.95V15.05Z" fill="#2A77FF"/>
<path d="M12.8571 10.75C12.8571 9.56259 13.8165 8.6 15 8.6C16.1835 8.6 17.1429 9.56259 17.1429 10.75V19.35C17.1429 20.5374 16.1835 21.5 15 21.5C13.8165 21.5 12.8571 20.5374 12.8571 19.35V10.75Z" fill="#2A77FF"/>
</svg>
